<mxfile host="app.diagrams.net" modified="2023-05-30T09:14:52.842Z" agent="Mozilla/5.0 (Windows NT 10.0; Win64; x64) AppleWebKit/537.36 (KHTML, like Gecko) Chrome/113.0.0.0 Safari/537.36" etag="maHBtvRmGroe0nDazV8j" version="21.3.5" type="device">
  <diagram id="C5RBs43oDa-KdzZeNtuy" name="Page-1">
    <mxGraphModel dx="1050" dy="581" grid="0" gridSize="10" guides="1" tooltips="1" connect="1" arrows="1" fold="1" page="1" pageScale="1" pageWidth="827" pageHeight="1169" math="0" shadow="0">
      <root>
        <mxCell id="WIyWlLk6GJQsqaUBKTNV-0" />
        <mxCell id="WIyWlLk6GJQsqaUBKTNV-1" parent="WIyWlLk6GJQsqaUBKTNV-0" />
        <mxCell id="kdoxKJNYAb2xpBBXHf6x-22" value="" style="edgeStyle=orthogonalEdgeStyle;rounded=0;orthogonalLoop=1;jettySize=auto;html=1;entryX=1;entryY=0.5;entryDx=0;entryDy=0;" parent="WIyWlLk6GJQsqaUBKTNV-1" source="kdoxKJNYAb2xpBBXHf6x-0" target="kdoxKJNYAb2xpBBXHf6x-23" edge="1">
          <mxGeometry relative="1" as="geometry">
            <mxPoint x="615" y="150" as="targetPoint" />
            <Array as="points">
              <mxPoint x="660" y="160" />
              <mxPoint x="660" y="160" />
            </Array>
          </mxGeometry>
        </mxCell>
        <mxCell id="kdoxKJNYAb2xpBBXHf6x-0" value="מנהל" style="shape=umlActor;verticalLabelPosition=bottom;verticalAlign=top;html=1;outlineConnect=0;horizontal=1;" parent="WIyWlLk6GJQsqaUBKTNV-1" vertex="1">
          <mxGeometry x="680" y="120" width="30" height="60" as="geometry" />
        </mxCell>
        <mxCell id="kdoxKJNYAb2xpBBXHf6x-17" value="" style="edgeStyle=orthogonalEdgeStyle;rounded=0;orthogonalLoop=1;jettySize=auto;html=1;entryX=1;entryY=0.5;entryDx=0;entryDy=0;" parent="WIyWlLk6GJQsqaUBKTNV-1" source="kdoxKJNYAb2xpBBXHf6x-1" target="kdoxKJNYAb2xpBBXHf6x-28" edge="1">
          <mxGeometry relative="1" as="geometry">
            <mxPoint x="625" y="310" as="targetPoint" />
            <Array as="points">
              <mxPoint x="640" y="320" />
              <mxPoint x="640" y="320" />
            </Array>
          </mxGeometry>
        </mxCell>
        <mxCell id="kdoxKJNYAb2xpBBXHf6x-1" value="עובד" style="shape=umlActor;verticalLabelPosition=bottom;verticalAlign=top;html=1;outlineConnect=0;horizontal=1;" parent="WIyWlLk6GJQsqaUBKTNV-1" vertex="1">
          <mxGeometry x="680" y="280" width="30" height="60" as="geometry" />
        </mxCell>
        <mxCell id="kdoxKJNYAb2xpBBXHf6x-30" style="edgeStyle=orthogonalEdgeStyle;rounded=0;orthogonalLoop=1;jettySize=auto;html=1;entryX=1;entryY=0.5;entryDx=0;entryDy=0;" parent="WIyWlLk6GJQsqaUBKTNV-1" source="kdoxKJNYAb2xpBBXHf6x-4" target="kdoxKJNYAb2xpBBXHf6x-18" edge="1">
          <mxGeometry relative="1" as="geometry">
            <Array as="points">
              <mxPoint x="660" y="480" />
              <mxPoint x="660" y="480" />
            </Array>
          </mxGeometry>
        </mxCell>
        <mxCell id="kdoxKJNYAb2xpBBXHf6x-4" value="לקוח" style="shape=umlActor;verticalLabelPosition=bottom;verticalAlign=top;html=1;outlineConnect=0;" parent="WIyWlLk6GJQsqaUBKTNV-1" vertex="1">
          <mxGeometry x="680" y="440" width="30" height="60" as="geometry" />
        </mxCell>
        <mxCell id="kdoxKJNYAb2xpBBXHf6x-5" value="הפעלת האלגוריתם" style="ellipse;whiteSpace=wrap;html=1;verticalAlign=top;" parent="WIyWlLk6GJQsqaUBKTNV-1" vertex="1">
          <mxGeometry x="400" y="90" width="81" height="40" as="geometry" />
        </mxCell>
        <mxCell id="kdoxKJNYAb2xpBBXHf6x-11" value="הוספת נקודת איסוף חדשה" style="ellipse;whiteSpace=wrap;html=1;verticalAlign=top;" parent="WIyWlLk6GJQsqaUBKTNV-1" vertex="1">
          <mxGeometry x="400" y="140" width="81" height="40" as="geometry" />
        </mxCell>
        <mxCell id="kdoxKJNYAb2xpBBXHf6x-12" value="הוספת עובד חדש" style="ellipse;whiteSpace=wrap;html=1;verticalAlign=top;" parent="WIyWlLk6GJQsqaUBKTNV-1" vertex="1">
          <mxGeometry x="400" y="190" width="81" height="40" as="geometry" />
        </mxCell>
        <mxCell id="kdoxKJNYAb2xpBBXHf6x-20" value="" style="edgeStyle=orthogonalEdgeStyle;rounded=0;orthogonalLoop=1;jettySize=auto;html=1;exitX=0;exitY=0.5;exitDx=0;exitDy=0;" parent="WIyWlLk6GJQsqaUBKTNV-1" source="kdoxKJNYAb2xpBBXHf6x-28" target="kdoxKJNYAb2xpBBXHf6x-19" edge="1">
          <mxGeometry relative="1" as="geometry" />
        </mxCell>
        <mxCell id="kdoxKJNYAb2xpBBXHf6x-36" style="edgeStyle=orthogonalEdgeStyle;rounded=0;orthogonalLoop=1;jettySize=auto;html=1;" parent="WIyWlLk6GJQsqaUBKTNV-1" source="kdoxKJNYAb2xpBBXHf6x-18" target="kdoxKJNYAb2xpBBXHf6x-32" edge="1">
          <mxGeometry relative="1" as="geometry" />
        </mxCell>
        <mxCell id="kdoxKJNYAb2xpBBXHf6x-37" style="edgeStyle=orthogonalEdgeStyle;rounded=0;orthogonalLoop=1;jettySize=auto;html=1;entryX=1;entryY=0.5;entryDx=0;entryDy=0;" parent="WIyWlLk6GJQsqaUBKTNV-1" source="kdoxKJNYAb2xpBBXHf6x-18" target="kdoxKJNYAb2xpBBXHf6x-31" edge="1">
          <mxGeometry relative="1" as="geometry" />
        </mxCell>
        <mxCell id="kdoxKJNYAb2xpBBXHf6x-18" value="&lt;div style=&quot;&quot;&gt;&lt;span style=&quot;background-color: initial;&quot;&gt;כניסה&amp;nbsp; &amp;nbsp; למערכת&amp;nbsp;&lt;/span&gt;&lt;/div&gt;" style="ellipse;whiteSpace=wrap;html=1;verticalAlign=top;align=center;" parent="WIyWlLk6GJQsqaUBKTNV-1" vertex="1">
          <mxGeometry x="540" y="460" width="81" height="40" as="geometry" />
        </mxCell>
        <mxCell id="kdoxKJNYAb2xpBBXHf6x-19" value="&lt;div style=&quot;&quot;&gt;&lt;span style=&quot;background-color: initial;&quot;&gt;צפייה&amp;nbsp;&lt;/span&gt;&lt;/div&gt;&lt;div style=&quot;&quot;&gt;&lt;span style=&quot;background-color: initial;&quot;&gt;בנתונים&lt;/span&gt;&lt;/div&gt;" style="ellipse;whiteSpace=wrap;html=1;verticalAlign=top;align=center;" parent="WIyWlLk6GJQsqaUBKTNV-1" vertex="1">
          <mxGeometry x="400" y="300" width="81" height="40" as="geometry" />
        </mxCell>
        <mxCell id="kdoxKJNYAb2xpBBXHf6x-25" value="" style="edgeStyle=orthogonalEdgeStyle;rounded=0;orthogonalLoop=1;jettySize=auto;html=1;entryX=1;entryY=0.5;entryDx=0;entryDy=0;" parent="WIyWlLk6GJQsqaUBKTNV-1" source="kdoxKJNYAb2xpBBXHf6x-23" target="kdoxKJNYAb2xpBBXHf6x-5" edge="1">
          <mxGeometry relative="1" as="geometry">
            <Array as="points">
              <mxPoint x="511" y="160" />
              <mxPoint x="511" y="110" />
            </Array>
          </mxGeometry>
        </mxCell>
        <mxCell id="kdoxKJNYAb2xpBBXHf6x-26" style="edgeStyle=orthogonalEdgeStyle;rounded=0;orthogonalLoop=1;jettySize=auto;html=1;" parent="WIyWlLk6GJQsqaUBKTNV-1" source="kdoxKJNYAb2xpBBXHf6x-23" target="kdoxKJNYAb2xpBBXHf6x-11" edge="1">
          <mxGeometry relative="1" as="geometry" />
        </mxCell>
        <mxCell id="kdoxKJNYAb2xpBBXHf6x-27" style="edgeStyle=orthogonalEdgeStyle;rounded=0;orthogonalLoop=1;jettySize=auto;html=1;entryX=1;entryY=0.5;entryDx=0;entryDy=0;" parent="WIyWlLk6GJQsqaUBKTNV-1" source="kdoxKJNYAb2xpBBXHf6x-23" target="kdoxKJNYAb2xpBBXHf6x-12" edge="1">
          <mxGeometry relative="1" as="geometry">
            <Array as="points">
              <mxPoint x="511" y="160" />
              <mxPoint x="511" y="210" />
            </Array>
          </mxGeometry>
        </mxCell>
        <mxCell id="kdoxKJNYAb2xpBBXHf6x-23" value="כניסה&amp;nbsp; &amp;nbsp; &amp;nbsp;למערכת" style="ellipse;whiteSpace=wrap;html=1;verticalAlign=top;align=center;" parent="WIyWlLk6GJQsqaUBKTNV-1" vertex="1">
          <mxGeometry x="540" y="140" width="81" height="40" as="geometry" />
        </mxCell>
        <mxCell id="kdoxKJNYAb2xpBBXHf6x-28" value="&lt;div style=&quot;&quot;&gt;&lt;span style=&quot;background-color: initial;&quot;&gt;כניסה&amp;nbsp; &amp;nbsp; למערכת&amp;nbsp;&lt;/span&gt;&lt;/div&gt;" style="ellipse;whiteSpace=wrap;html=1;verticalAlign=top;align=center;" parent="WIyWlLk6GJQsqaUBKTNV-1" vertex="1">
          <mxGeometry x="550" y="300" width="81" height="40" as="geometry" />
        </mxCell>
        <mxCell id="kdoxKJNYAb2xpBBXHf6x-39" style="edgeStyle=orthogonalEdgeStyle;rounded=0;orthogonalLoop=1;jettySize=auto;html=1;exitX=0;exitY=0.5;exitDx=0;exitDy=0;entryX=1;entryY=0.5;entryDx=0;entryDy=0;" parent="WIyWlLk6GJQsqaUBKTNV-1" source="kdoxKJNYAb2xpBBXHf6x-31" target="kdoxKJNYAb2xpBBXHf6x-34" edge="1">
          <mxGeometry relative="1" as="geometry" />
        </mxCell>
        <mxCell id="kdoxKJNYAb2xpBBXHf6x-31" value="&lt;div style=&quot;&quot;&gt;לא קיים&lt;/div&gt;&lt;div style=&quot;&quot;&gt;&amp;nbsp;במערכת&lt;/div&gt;" style="ellipse;whiteSpace=wrap;html=1;verticalAlign=top;align=center;" parent="WIyWlLk6GJQsqaUBKTNV-1" vertex="1">
          <mxGeometry x="400" y="510" width="81" height="40" as="geometry" />
        </mxCell>
        <mxCell id="kdoxKJNYAb2xpBBXHf6x-38" style="edgeStyle=orthogonalEdgeStyle;rounded=0;orthogonalLoop=1;jettySize=auto;html=1;exitX=0;exitY=0.5;exitDx=0;exitDy=0;entryX=1;entryY=0.5;entryDx=0;entryDy=0;" parent="WIyWlLk6GJQsqaUBKTNV-1" source="kdoxKJNYAb2xpBBXHf6x-32" target="kdoxKJNYAb2xpBBXHf6x-35" edge="1">
          <mxGeometry relative="1" as="geometry" />
        </mxCell>
        <mxCell id="kdoxKJNYAb2xpBBXHf6x-32" value="&lt;div style=&quot;&quot;&gt;קיים&amp;nbsp;&lt;/div&gt;&lt;div style=&quot;&quot;&gt;במערכת&lt;/div&gt;" style="ellipse;whiteSpace=wrap;html=1;verticalAlign=top;align=center;" parent="WIyWlLk6GJQsqaUBKTNV-1" vertex="1">
          <mxGeometry x="400" y="440" width="81" height="40" as="geometry" />
        </mxCell>
        <mxCell id="kdoxKJNYAb2xpBBXHf6x-33" value="&lt;div style=&quot;&quot;&gt;אישור&lt;/div&gt;" style="ellipse;whiteSpace=wrap;html=1;verticalAlign=top;align=center;" parent="WIyWlLk6GJQsqaUBKTNV-1" vertex="1">
          <mxGeometry x="160" y="440" width="81" height="40" as="geometry" />
        </mxCell>
        <mxCell id="kdoxKJNYAb2xpBBXHf6x-40" style="edgeStyle=orthogonalEdgeStyle;rounded=0;orthogonalLoop=1;jettySize=auto;html=1;exitX=0.5;exitY=0;exitDx=0;exitDy=0;entryX=0.5;entryY=1;entryDx=0;entryDy=0;" parent="WIyWlLk6GJQsqaUBKTNV-1" source="kdoxKJNYAb2xpBBXHf6x-34" target="kdoxKJNYAb2xpBBXHf6x-35" edge="1">
          <mxGeometry relative="1" as="geometry" />
        </mxCell>
        <mxCell id="kdoxKJNYAb2xpBBXHf6x-34" value="&lt;div style=&quot;&quot;&gt;הכנסת פרטים אישיים&lt;/div&gt;" style="ellipse;whiteSpace=wrap;html=1;verticalAlign=top;align=center;" parent="WIyWlLk6GJQsqaUBKTNV-1" vertex="1">
          <mxGeometry x="280" y="510" width="81" height="40" as="geometry" />
        </mxCell>
        <mxCell id="kdoxKJNYAb2xpBBXHf6x-41" style="edgeStyle=orthogonalEdgeStyle;rounded=0;orthogonalLoop=1;jettySize=auto;html=1;exitX=0;exitY=0.5;exitDx=0;exitDy=0;entryX=1;entryY=0.5;entryDx=0;entryDy=0;" parent="WIyWlLk6GJQsqaUBKTNV-1" source="kdoxKJNYAb2xpBBXHf6x-35" target="kdoxKJNYAb2xpBBXHf6x-33" edge="1">
          <mxGeometry relative="1" as="geometry" />
        </mxCell>
        <mxCell id="kdoxKJNYAb2xpBBXHf6x-35" value="&lt;div style=&quot;&quot;&gt;הזמנת&lt;/div&gt;&lt;div style=&quot;&quot;&gt;&amp;nbsp;משלוח&lt;/div&gt;" style="ellipse;whiteSpace=wrap;html=1;verticalAlign=top;align=center;" parent="WIyWlLk6GJQsqaUBKTNV-1" vertex="1">
          <mxGeometry x="280" y="440" width="81" height="40" as="geometry" />
        </mxCell>
      </root>
    </mxGraphModel>
  </diagram>
</mxfile>
